<?xml version="1.0"?>
<svg xmlns="http://www.w3.org/2000/svg" xmlns:xlink="http://www.w3.org/1999/xlink" version="1.1" id="Capa_1" x="0px" y="0px" viewBox="0 0 512.246 512.246" style="enable-background:new 0 0 512.246 512.246;" xml:space="preserve" width="512px" height="512px" class=""><g><g>
	<g>
		<path d="M451.957,181.96l17.199-94.598l-0.151-0.027c0.052-0.638,0.328-1.23,0.328-1.879c0-43.969-121.646-64-234.667-64    C124.223,21.456,5.862,40.648,0.508,82.55c-0.147,0.51-0.203,1.022-0.272,1.556C0.208,84.567,0,84.99,0,85.456    c0,0.388,0.173,0.751,0.191,1.137c0.029,0.262-0.063,0.507-0.014,0.77l4.663,25.645C1.792,118.96,0,125.536,0,132.373V234.79    c0,20.768,14.921,38.065,34.599,41.85L64,437.456c0,36.646,88.469,53.333,170.667,53.333s170.667-16.688,170.49-51.427    l31.727-174.494c9.659,1.134,18.995,1.941,27.388,1.941c24.073,0,41.802-5.219,46.573-18.781    C513.236,241.217,520.146,220.863,451.957,181.96z M234.667,42.79c136.991,0,212.103,27.749,213.228,42.322l-0.307,1.69    c-4.277,14.799-78.939,41.322-212.921,41.322c-15.421,0-31.38-0.612-47.352-1.454c-6.228-12.369-18.171-21.486-32.69-23.296    L47.958,90.04c-7.016-0.874-14.038,0.224-20.555,2.729c-3.326-2.536-5.014-4.592-5.66-5.986L21.44,85.11    C22.57,70.536,97.68,42.79,234.667,42.79z M21.333,234.79V132.373c0-6.208,2.563-11.885,7.219-16    c3.958-3.49,8.854-5.333,14.01-5.333c0.917,0,1.833,0.052,2.75,0.167l106.667,13.333c10.656,1.333,18.688,10.427,18.688,21.167    v89.083c0,11.76-9.573,21.333-21.333,21.333H42.667C30.906,256.123,21.333,246.55,21.333,234.79z M419.656,240.827    c-29.238-4.975-66.43-14.182-110.208-29.444c-18.634-6.492-36.598-13.586-53.798-20.994c-0.93-10.91-9.837-19.6-20.983-19.6    c-11.76,0-21.333,9.573-21.333,21.333s9.573,21.333,21.333,21.333c4.358,0,8.184-1.633,11.565-3.887    c17.96,7.763,36.732,15.182,56.195,21.96c32.06,11.182,74.813,23.561,113.427,30.268L384,437.456c0,9.573-50.802,32-149.333,32    S85.333,447.029,85.156,435.55L56.411,277.456h92.922c23.531,0,42.667-19.135,42.667-42.667v-86.645    c14.363,0.669,28.767,1.311,42.667,1.311c80.527,0,165.194-10.234,207.359-31.984L419.656,240.827z M440.701,243.87l7.197-39.585    c34.783,20.794,42.944,33.706,42.915,36.473C487.56,245.321,469.9,247.219,440.701,243.87z" data-original="#000000" class="active-path" data-old_color="#000000" fill="#505050"/>
	</g>
</g></g> </svg>
