<?xml version="1.0"?>
<svg xmlns="http://www.w3.org/2000/svg" xmlns:xlink="http://www.w3.org/1999/xlink" version="1.1" id="Capa_1" x="0px" y="0px" viewBox="0 0 512.081 512.081" style="enable-background:new 0 0 512.081 512.081;" xml:space="preserve" width="512px" height="512px" class=""><g><g>
	<g>
		<g>
			<path d="M144.041,0C64.548,0.088,0.129,64.508,0.041,144h32c0.079-61.823,50.177-111.921,112-112h64v193.6     c0.268,97.229-38.374,190.524-107.312,259.088l22.624,22.624c74.961-74.55,116.979-175.992,116.688-281.712V32h80v64h32V32h160V0     H144.041z" data-original="#000000" class="active-path" data-old_color="#ffffff" fill="#ffffff"/>
			<path d="M441.721,470.4c-26.55,17.62-62.356,10.381-79.977-16.168c-6.262-9.436-9.609-20.507-9.623-31.832V256h-32.08v166.4     c0.008,49.538,40.173,89.69,89.711,89.682c17.699-0.003,35.002-5.242,49.729-15.057l29.44-19.632l-17.76-26.624L441.721,470.4z" data-original="#000000" class="active-path" data-old_color="#ffffff" fill="#ffffff"/>
			<rect x="320.041" y="128" width="32" height="32" data-original="#000000" class="active-path" data-old_color="#ffffff" fill="#ffffff"/>
			<rect x="320.041" y="192" width="32" height="32" data-original="#000000" class="active-path" data-old_color="#ffffff" fill="#ffffff"/>
		</g>
	</g>
</g></g> </svg>
