<?xml version="1.0"?>
<svg xmlns="http://www.w3.org/2000/svg" height="512px" viewBox="0 -3 502.2 502" width="512px" class=""><g><path d="m451.105469 160.101562h-1.753907l-8-32h-30.246093v-32h91.09375l-21.335938-64h-21.757812v-8c0-13.234374-10.769531-24-24-24h-368c-13.234375 0-24 10.765626-24 24v8h-21.769531l-21.335938 64h91.105469v32h-30.25l-8 32h-1.75c-13.234375 0-24 10.765626-24 24v16c0 10.414063 6.710937 19.214844 16 22.527344v233.472656c0 22.054688 17.941406 40 40 40h96c22.054687 0 40-17.945312 40-40v-233.472656c9.285156-3.3125 16-12.113281 16-22.527344v-16c0-13.234374-10.769531-24-24-24h-1.753907l-8-32h-30.246093v-32h160v32h-30.25l-8 32h-1.75c-13.234375 0-24 10.765626-24 24v16c0 10.414063 6.710937 19.214844 16 22.527344v233.472656c0 22.054688 17.941406 40 40 40h96c22.054687 0 40-17.945312 40-40v-233.472656c9.285156-3.3125 16-12.113281 16-22.527344v-16c0-13.234374-10.769531-24-24-24zm-392-136c0-4.410156 3.589843-8 8-8h368c4.40625 0 8 3.589844 8 8v8h-384zm-26.234375 24h436.472656l10.664062 32h-457.808593zm26.234375 408v-232h64v256h-40c-13.234375 0-24-10.769531-24-24zm120 24h-8v-224h-16v224h-16v-256h16v16h16v-16h32v232c0 13.230469-10.769531 24-24 24zm40-296v16c0 4.40625-3.59375 8-8 8h-160c-4.410157 0-8-3.59375-8-8v-16c0-4.410156 3.589843-8 8-8h160c4.40625 0 8 3.589844 8 8zm-26.25-24h-123.503907l4-16h115.503907zm-37.75-32h-48v-32h48zm192-32h48v32h-48zm-33.753907 48h115.503907l4 16h-123.503907zm-14.246093 312v-232h32v16h16v-16h16v256h-16v-224h-16v224h-8c-13.234375 0-24-10.769531-24-24zm120 24h-40v-256h64v232c0 13.230469-10.769531 24-24 24zm40-280c0 4.40625-3.59375 8-8 8h-160c-4.410157 0-8-3.59375-8-8v-16c0-4.410156 3.589843-8 8-8h160c4.40625 0 8 3.589844 8 8zm0 0" data-original="#000000" class="active-path" data-old_color="#000000" fill="#505050"/></g> </svg>
