<?xml version="1.0"?>
<svg xmlns="http://www.w3.org/2000/svg" xmlns:xlink="http://www.w3.org/1999/xlink" version="1.1" id="Capa_1" x="0px" y="0px" viewBox="0 0 429.822 429.822" style="enable-background:new 0 0 429.822 429.822;" xml:space="preserve" width="512px" height="512px" class=""><g><g>
	<g>
		<path d="M266.4,143.188H15.6c-8.8,0-15.6,7.2-15.6,15.6v17.2c0,8.8,7.2,15.6,15.6,15.6h23.2v138.4c0,4,3.2,7.2,7.2,7.2    s7.2-3.2,7.2-7.2v-138.4h175.6v138.4c0,4,3.2,7.2,7.2,7.2s7.2-3.2,7.2-7.2v-138.4h23.2c8.8,0,15.6-7.2,15.6-15.6v-17.2    C282,149.988,274.8,143.188,266.4,143.188z M267.6,175.988c0,0.8-0.8,1.6-1.6,1.6H15.6c-0.8,0-1.6-0.8-1.6-1.6v-17.2    c0-0.8,0.8-1.6,1.6-1.6H266c0.8,0,1.6,0.8,1.6,1.6V175.988z" data-original="#000000" class="active-path" data-old_color="#000000" fill="#505050"/>
	</g>
</g><g>
	<g>
		<path d="M428.4,101.188c-1.6-2.8-4-4.8-7.2-6l-6.4-2c-6.4-2-13.2,1.6-15.2,8l-19.2,62.4c-0.8,3.2-0.8,6.4,0.8,9.2    c0.8,1.6,2,2.8,3.6,4l-11.2,35.6H274c-8.4,0-15.2,7.2-15.2,15.6v11.2c0,8.8,6.8,15.6,15.2,15.6h3.2l-26.4,72    c-1.2,3.6,0.4,7.6,4.4,9.2c0.8,0.4,1.6,0.4,2.4,0.4c2.8,0,5.6-1.6,6.8-4.8l28.4-76.8H366l28.4,76.8c1.2,2.8,3.6,4.8,6.8,4.8    c0.8,0,1.6,0,2.4-0.4c3.6-1.2,5.6-5.6,4.4-9.2l-26.8-72.4c6.8-1.6,12-8,12-15.2v-11.2c0-4.8-2-9.2-5.6-12l11.2-34.8    c5.6,0,10-3.6,11.6-8.8l19.2-62.4C430,107.587,430,104.388,428.4,101.188z M378.8,239.587c0,0.8-0.4,1.6-0.8,1.6H274    c-0.4,0.4-0.8-0.4-0.8-1.2v-11.2c0-0.8,0.4-1.6,0.8-1.6h102.8c0.4,0,0.8,0,1.2,0s0.8,0.4,0.8,1.2V239.587z M397.2,167.188    l-2.4-0.8l18-58.8l2.4,0.8L397.2,167.188z" data-original="#000000" class="active-path" data-old_color="#000000" fill="#505050"/>
	</g>
</g></g> </svg>
