<?xml version="1.0"?>
<svg xmlns="http://www.w3.org/2000/svg" xmlns:xlink="http://www.w3.org/1999/xlink" version="1.1" id="Layer_1" x="0px" y="0px" viewBox="0 0 505 505" style="enable-background:new 0 0 505 505;" xml:space="preserve" width="512px" height="512px" class=""><g><g>
	<path d="M176.119,268.055c4.127-0.358,7.182-3.993,6.825-8.12l-7.682-88.625c-0.427-4.916,1.872-9.326,6.153-11.799   c4.272-2.47,9.24-2.256,13.288,0.575L376.005,286.81c1.309,0.915,2.807,1.354,4.29,1.354c2.366,0,4.695-1.117,6.154-3.204   c2.373-3.395,1.544-8.071-1.851-10.444L203.297,147.792c-8.82-6.165-20.082-6.649-29.388-1.267   c-9.313,5.379-14.521,15.373-13.591,26.082l7.681,88.625C168.357,265.358,172.001,268.412,176.119,268.055z" data-original="#000000" class="active-path" data-old_color="#000000" fill="#505050"/>
	<path d="M453.897,322.952l-42.174-29.478c-3.395-2.373-8.069-1.544-10.444,1.851c-2.373,3.395-1.544,8.071,1.851,10.444   l42.174,29.478c7.118,4.977,7.597,12.474,5.671,17.832c-1.926,5.355-7.054,10.833-15.726,10.135l-121.948-9.77   c-6.185-0.498-12.281,0.883-17.614,3.977c-5.374,3.096-9.618,7.69-12.271,13.28l-52.51,110.491   c-3.726,7.843-11.041,9.555-16.643,8.544c-5.601-1.011-11.853-5.174-12.6-13.823l-15.98-184.372   c-0.358-4.126-3.994-7.178-8.12-6.824c-4.127,0.358-7.182,3.993-6.825,8.12l15.98,184.37c1.197,13.852,11.195,24.82,24.879,27.291   c1.877,0.339,3.744,0.504,5.585,0.504c11.585,0,22.124-6.534,27.272-17.371l52.513-110.495c1.341-2.826,3.487-5.149,6.228-6.728   c2.701-1.566,5.777-2.263,8.907-2.011l121.948,9.77c13.878,1.118,26.337-6.929,31.04-20.013   C469.795,345.067,465.296,330.921,453.897,322.952z" data-original="#000000" class="active-path" data-old_color="#000000" fill="#505050"/>
	<path d="M209.326,207.857c-3.587,2.071-4.816,6.658-2.745,10.245l71.928,124.584c1.389,2.406,3.91,3.751,6.502,3.751   c1.272,0,2.563-0.324,3.743-1.006c3.587-2.071,4.816-6.658,2.745-10.245l-71.928-124.584   C217.5,207.015,212.913,205.786,209.326,207.857z" data-original="#000000" class="active-path" data-old_color="#000000" fill="#505050"/>
	<path d="M166.791,65.865c4.142,0,7.5-3.358,7.5-7.5V7.5c0-4.142-3.358-7.5-7.5-7.5s-7.5,3.358-7.5,7.5v50.865   C159.291,62.507,162.649,65.865,166.791,65.865z" data-original="#000000" class="active-path" data-old_color="#000000" fill="#505050"/>
	<path d="M86.375,37.703c-2.929-2.929-7.678-2.929-10.606,0c-2.929,2.929-2.929,7.677,0,10.606l35.966,35.967   c1.464,1.465,3.384,2.197,5.303,2.197c1.919,0,3.839-0.732,5.303-2.197c2.929-2.929,2.929-7.677,0-10.606L86.375,37.703z" data-original="#000000" class="active-path" data-old_color="#000000" fill="#505050"/>
	<path d="M103.93,128.726c0-4.142-3.358-7.5-7.5-7.5H45.566c-4.142,0-7.5,3.358-7.5,7.5s3.358,7.5,7.5,7.5H96.43   C100.572,136.226,103.93,132.868,103.93,128.726z" data-original="#000000" class="active-path" data-old_color="#000000" fill="#505050"/>
	<path d="M229.652,128.726c0,4.142,3.358,7.5,7.5,7.5h50.865c4.143,0,7.5-3.358,7.5-7.5s-3.357-7.5-7.5-7.5h-50.865   C233.01,121.226,229.652,124.583,229.652,128.726z" data-original="#000000" class="active-path" data-old_color="#000000" fill="#505050"/>
	<path d="M111.735,173.175l-35.966,35.967c-2.929,2.929-2.929,7.678,0,10.606c1.464,1.465,3.384,2.197,5.303,2.197   s3.839-0.732,5.303-2.197l35.966-35.967c2.929-2.929,2.929-7.678,0-10.606C119.413,170.246,114.664,170.246,111.735,173.175z" data-original="#000000" class="active-path" data-old_color="#000000" fill="#505050"/>
	<path d="M216.544,86.473c1.919,0,3.839-0.732,5.303-2.197l35.967-35.967c2.929-2.929,2.929-7.678,0-10.606   c-2.93-2.929-7.678-2.928-10.607,0L211.241,73.67c-2.929,2.929-2.929,7.678,0,10.606C212.705,85.741,214.625,86.473,216.544,86.473   z" data-original="#000000" class="active-path" data-old_color="#000000" fill="#505050"/>
</g></g> </svg>
