<?xml version="1.0"?>
<svg xmlns="http://www.w3.org/2000/svg" height="512px" version="1.1" viewBox="0 0 640 640" width="512px"><g><g id="surface1">
<path d="M 629.332031 170.664062 L 576 170.664062 L 576 138.667969 C 576 132.773438 571.226562 128 565.332031 128 L 480 128 C 474.105469 128 469.332031 132.773438 469.332031 138.667969 L 469.332031 170.664062 L 170.664062 170.664062 L 170.664062 138.667969 C 170.664062 132.773438 165.890625 128 160 128 L 74.667969 128 C 68.773438 128 64 132.773438 64 138.667969 L 64 170.664062 L 10.667969 170.664062 C 4.773438 170.664062 0 175.4375 0 181.332031 L 0 245.332031 C 0 251.226562 4.773438 256 10.667969 256 L 21.332031 256 L 21.332031 629.332031 C 21.332031 635.226562 26.109375 640 32 640 L 608 640 C 613.890625 640 618.667969 635.226562 618.667969 629.332031 L 618.667969 256 L 629.332031 256 C 635.226562 256 640 251.226562 640 245.332031 L 640 181.332031 C 640 175.4375 635.226562 170.664062 629.332031 170.664062 Z M 490.664062 149.332031 L 554.667969 149.332031 L 554.667969 170.664062 L 490.664062 170.664062 Z M 85.332031 149.332031 L 149.335938 149.332031 L 149.335938 170.664062 L 85.332031 170.664062 Z M 597.335938 618.667969 L 42.664062 618.667969 L 42.664062 256 L 597.335938 256 Z M 618.667969 234.667969 L 21.332031 234.667969 L 21.332031 192 L 618.667969 192 Z M 618.667969 234.667969 " data-original="#000000" class="active-path" data-old_color="#000000" fill="#505050"/>
<path d="M 225.175781 490.601562 L 306.945312 481.515625 L 288.167969 584.757812 C 287.261719 589.761719 290.007812 594.71875 294.742188 596.585938 C 295.992188 597.085938 297.324219 597.339844 298.667969 597.335938 C 302.28125 597.328125 305.648438 595.5 307.617188 592.457031 L 424.953125 411.125 C 428.148438 406.175781 426.726562 399.574219 421.78125 396.375 C 419.722656 395.042969 417.265625 394.460938 414.824219 394.730469 L 337.480469 403.328125 L 383.042969 303.0625 C 385.46875 297.695312 383.082031 291.371094 377.714844 288.949219 C 376.335938 288.324219 374.84375 288.003906 373.328125 288.003906 L 277.335938 288.003906 C 272.601562 288.003906 268.4375 291.125 267.105469 295.660156 L 213.769531 476.992188 C 212.109375 482.640625 215.34375 488.574219 220.996094 490.234375 C 222.347656 490.628906 223.769531 490.757812 225.175781 490.601562 Z M 285.3125 309.332031 L 356.777344 309.332031 L 310.292969 411.582031 C 307.855469 416.949219 310.226562 423.273438 315.585938 425.707031 C 317.335938 426.503906 319.261719 426.8125 321.171875 426.601562 L 394.824219 418.421875 L 318.710938 536.054688 L 330.492188 471.242188 C 331.546875 465.445312 327.703125 459.890625 321.910156 458.835938 C 320.894531 458.652344 319.851562 458.613281 318.824219 458.730469 L 238.75 467.625 Z M 285.3125 309.332031 " data-original="#000000" class="active-path" data-old_color="#000000" fill="#505050"/>
<path d="M 480 64 L 512 64 L 512 96 C 512 101.890625 516.777344 106.664062 522.664062 106.664062 C 528.558594 106.664062 533.335938 101.890625 533.335938 96 L 533.335938 64 L 565.332031 64 C 571.226562 64 576 59.222656 576 53.335938 C 576 47.441406 571.226562 42.664062 565.332031 42.664062 L 533.335938 42.664062 L 533.335938 10.667969 C 533.335938 4.773438 528.558594 0 522.664062 0 C 516.777344 0 512 4.773438 512 10.667969 L 512 42.664062 L 480 42.664062 C 474.105469 42.664062 469.332031 47.441406 469.332031 53.335938 C 469.332031 59.222656 474.105469 64 480 64 Z M 480 64 " data-original="#000000" class="active-path" data-old_color="#000000" fill="#505050"/>
<path d="M 74.667969 64 L 160 64 C 165.894531 64 170.667969 59.222656 170.667969 53.335938 C 170.667969 47.441406 165.894531 42.664062 160 42.664062 L 74.667969 42.664062 C 68.773438 42.664062 64 47.441406 64 53.335938 C 64 59.222656 68.773438 64 74.667969 64 Z M 74.667969 64 " data-original="#000000" class="active-path" data-old_color="#000000" fill="#505050"/>
</g></g> </svg>
