<?xml version="1.0"?>
<svg xmlns="http://www.w3.org/2000/svg" height="512px" viewBox="-62 0 512 512" width="512px" class=""><g><path d="m354.585938 0h-43.261719c-4.140625 0-7.5 3.359375-7.5 7.5s3.359375 7.5 7.5 7.5h43.261719c10.378906 0 18.820312 8.445312 18.820312 18.824219v22.015625c0 10.378906-8.441406 18.824218-18.820312 18.824218h-88.714844c2.878906-8.75 4.375-17.945312 4.375-27.238281 0-4.144531-3.359375-7.5-7.5-7.5h-57.457032c-27.964843 0-53.476562 13.128907-69.652343 34.738281h-101.8125c-10.378907 0-18.824219-8.445312-18.824219-18.824218v-22.015625c0-10.378907 8.445312-18.824219 18.824219-18.824219h243.324219c4.140624 0 7.5-3.359375 7.5-7.5s-3.359376-7.5-7.5-7.5h-243.324219c-18.652344 0-33.824219 15.171875-33.824219 33.824219v22.015625c0 18.648437 15.171875 33.824218 33.824219 33.824218h8.714843v35.46875l-11.421874 5.6875c-8.195313 4.078126-13.515626 12.296876-13.875 21.457032-.351563 9.152344 4.308593 17.757812 12.148437 22.457031l13.167969 7.898437c-.003906.125-.019532.242188-.019532.367188v321.5c0 4.140625 3.359376 7.5 7.5 7.5 4.144532 0 7.5-3.359375 7.5-7.5v-49.246094h50.671876c-.015626 28.726563-.027344 48.535156-.027344 49.242188 0 4.144531 3.355468 7.5 7.496094 7.503906h.003906c4.140625 0 7.5-3.355469 7.5-7.496094 0-1.023437.019531-41.964844.046875-92.0625h22.601562c4.144531 0 7.5-3.359375 7.5-7.5s-3.355469-7.5-7.5-7.5h-22.59375c.039063-73.128906.089844-158.585937.113281-168.867187.027344-9.210938-4.871093-17.882813-12.78125-22.632813l-73.464843-44.070312c-3.144531-1.886719-5.015625-5.34375-4.875-9.011719.144531-3.671875 2.277343-6.972656 5.570312-8.609375l83.34375-41.488281c-2.628906 7.835937-3.964843 16.019531-3.964843 24.433593l-41.730469 20.769532c-2.746094 1.367187-4.386719 4.269531-4.132813 7.332031.25 3.058594 2.339844 5.652344 5.273438 6.554687l62.535156 19.175782c.019531.003906.039062.007812.058594.011718 13.992187 14.300782 33.480468 23.195313 55.019531 23.195313 21.542969 0 41.039063-8.902344 55.03125-23.207031.0625-.015625.125-.023438.1875-.042969l62.394531-19.132813c2.933594-.902343 5.023438-3.496093 5.273438-6.554687.253906-3.058594-1.386719-5.960937-4.132813-7.332031l-41.730469-20.765625c0-8.398438-1.355468-16.625-3.972656-24.441407l83.355469 41.492188c3.289063 1.636719 5.421875 4.9375 5.566406 8.601562.140625 3.675782-1.726562 7.132813-4.875 9.019532l-73.464843 44.074218c-7.910157 4.746094-12.808594 13.417969-12.777344 22.625.003906 3.273438.015625 14.050782.027344 29.574219 0 4.140625 3.359374 7.496094 7.5 7.496094h.003906c4.140625-.003906 7.496094-3.363281 7.496094-7.503906-.007813-5.476563-.011719-10.347657-.011719-14.523438h50.792969v53.25h-50.765626c0-2.136719 0-4.25-.003906-6.316406-.003906-4.140625-3.359375-7.492187-7.5-7.492187h-.003906c-4.144531 0-7.5 3.359374-7.496094 7.503906.019532 31.152344.042969 70.472656.0625 106.886718h-86.421875c-4.140625 0-7.5 3.355469-7.5 7.5 0 4.140626 3.359375 7.5 7.5 7.5h86.433594c.027344 50.578126.050781 92.0625.050781 92.0625l15-.007812s-.011718-20.042969-.027344-49.242188h50.667969v49.242188c0 4.140625 3.359375 7.5 7.5 7.5 4.144531 0 7.5-3.359375 7.5-7.5v-321.5c0-.125-.011719-.242188-.015625-.367188l13.164063-7.898437c7.84375-4.699219 12.5-13.304687 12.152343-22.46875-.363281-9.148437-5.679687-17.367187-13.875-21.445313l-11.425781-5.6875v-35.46875h8.71875c18.648438 0 33.824219-15.171874 33.824219-33.824218v-22.015625c0-18.652344-15.171875-33.824219-33.820312-33.824219zm-297.046876 311.859375h50.75c-.011718 19.027344-.023437 39.671875-.035156 60.144531h-50.714844zm50.757813-15h-50.757813v-53.25h50.796876c-.011719 12.480469-.027344 31.304687-.039063 53.25zm-50.757813 143.394531v-53.246094h50.707032c-.011719 18.746094-.019532 36.96875-.027344 53.246094zm50.8125-211.71875v.074219h-50.8125v-36.988281l45.3125 27.183594c3.40625 2.042968 5.511719 5.769531 5.5 9.730468zm222.515626 83.324219v60.144531h-50.71875c-.011719-20.5625-.023438-41.234375-.035157-60.144531zm-50.679688 128.394531c-.007812-16.304687-.019531-34.535156-.03125-53.246094h50.710938v53.246094zm50.679688-211.644531h-50.808594c0-.023437 0-.054687 0-.078125-.011719-3.957031 2.09375-7.683594 5.496094-9.726562l45.3125-27.183594zm-273.328126-138.945313h56.257813l-56.257813 28.003907zm41.421876 63.355469 19.882812-9.894531c1.320312 6.273438 3.414062 12.269531 6.167969 17.882812zm95.242187 36.210938c-34.199219 0-62.023437-27.824219-62.023437-62.023438 0-9.351562 2.03125-18.34375 6.039062-26.722656.0625-.136719.128906-.28125.1875-.425781 11.074219-27.417969 37.332031-45.132813 66.886719-45.132813h49.5625c-1.078125 10.316407-4.371094 20.308594-9.679688 29.253907-.011719.015624-.019531.035156-.027343.050781-.144532.253906-.285157.511719-.402344.785156-.039063.089844-3.90625 8.878906-11.398438 17.164063-2.777344 3.074218-2.539062 7.816406.535156 10.59375 1.433594 1.296874 3.234376 1.9375 5.027344 1.9375 2.046875 0 4.085938-.832032 5.566406-2.46875 2.71875-3.011719 5.046876-6.074219 6.976563-8.90625 3.140625 7.507812 4.777344 15.589843 4.777344 23.871093 0 34.199219-27.824219 62.023438-62.027344 62.023438zm69.195313-28.222657c2.753906-5.613281 4.84375-11.609374 6.167968-17.882812l19.878906 9.894531zm67.46875-43.339843-56.257813-28.003907h56.257813zm0 0" data-original="#000000" class="active-path" data-old_color="#000000" fill="#505050"/><path d="m194.203125 434.226562c-4.140625 0-7.5 3.359376-7.5 7.5v62.773438c0 4.140625 3.359375 7.5 7.5 7.5 4.144531 0 7.5-3.359375 7.5-7.5v-62.773438c0-4.140624-3.355469-7.5-7.5-7.5zm0 0" data-original="#000000" class="active-path" data-old_color="#000000" fill="#505050"/></g> </svg>
